# Blender 3.2.1
# www.blender.org
mtllib telefon.mtl
o Cube
v -0.183863 -1.896767 0.829500
v -0.183863 -1.573370 1.000000
v -0.221655 -1.573370 0.829500
v -0.183863 1.573370 1.000000
v -0.183863 1.896767 0.829500
v -0.221655 1.573370 0.829500
v -0.183863 -1.896767 -0.829500
v -0.221655 -1.573370 -0.829500
v -0.183863 -1.573370 -1.000000
v -0.183863 1.896767 -0.829500
v -0.183863 1.573370 -1.000000
v -0.221655 1.573370 -0.829500
v 0.183863 -1.896767 0.829500
v 0.221655 -1.573370 0.829500
v 0.183863 -1.573370 1.000000
v 0.183863 1.896767 0.829500
v 0.183863 1.573370 1.000000
v 0.221655 1.573370 0.829500
v 0.183863 -1.896767 -0.829500
v 0.183863 -1.573370 -1.000000
v 0.221655 -1.573370 -0.829500
v 0.183863 1.896767 -0.829500
v 0.221655 1.573370 -0.829500
v 0.183863 1.573370 -1.000000
v -0.166276 1.812425 -0.955534
v 0.166276 1.812425 -0.955534
v -0.166276 1.812425 0.955534
v 0.166276 1.812425 0.955534
v -0.166276 -1.812425 0.955534
v 0.166276 -1.812425 0.955534
v -0.166276 -1.812425 -0.955534
v 0.166276 -1.812425 -0.955534
vn -0.0000 -0.0000 1.0000
vn 1.0000 -0.0000 -0.0000
vn -0.0000 1.0000 -0.0000
vn -1.0000 -0.0000 -0.0000
vn -0.0000 -0.0000 -1.0000
vn -0.9705 -0.1124 0.2132
vn -0.9705 0.1124 0.2132
vn -0.9705 -0.1124 -0.2132
vn -0.9705 0.1124 -0.2132
vn 0.9705 -0.1124 0.2132
vn 0.9705 0.1124 0.2132
vn 0.9705 -0.1124 -0.2132
vn 0.9705 0.1124 -0.2132
vn -0.9932 -0.1161 -0.0000
vn -0.9763 -0.0000 0.2164
vn -0.9932 0.1161 -0.0000
vn -0.9763 -0.0000 -0.2164
vn -0.0000 -0.1829 -0.9831
vn -0.0000 0.1829 -0.9831
vn 0.9763 -0.0000 -0.2164
vn 0.9932 -0.1161 -0.0000
vn 0.9932 0.1161 -0.0000
vn 0.9763 -0.0000 0.2164
vn -0.0000 -0.1829 0.9831
vn -0.0000 0.1829 0.9831
vn -0.0000 -1.0000 -0.0000
vn -0.0000 0.8311 -0.5562
vn -0.0000 0.8311 0.5562
vn -0.0000 -0.8311 0.5562
vn -0.0000 -0.8311 -0.5562
vt 0.061412 0.245796
vt 0.077613 0.259922
vt 0.985101 0.008231
vt 0.031094 0.298533
vt 0.248771 0.247402
vt 0.261123 0.233430
vt 0.985101 0.946400
vt 0.294423 0.274456
vt 0.064394 0.073876
vt 0.520434 0.008231
vt 0.031094 0.032851
vt 0.076746 0.059904
vt 0.264105 0.061510
vt 0.247904 0.047384
vt 0.520434 0.946400
vt 0.294423 0.008773
vt 0.142004 0.171068
vt 0.147647 0.169726
vt 0.146872 0.175435
vt 0.188047 0.172008
vt 0.183095 0.177475
vt 0.181886 0.171411
vt 0.137470 0.135298
vt 0.142423 0.129831
vt 0.143631 0.135896
vt 0.183513 0.136238
vt 0.177870 0.137580
vt 0.178645 0.131872
vt 0.256004 0.054447
vt 0.181079 0.134055
vt 0.254947 0.240416
vt 0.185571 0.174741
vt 0.069513 0.252859
vt 0.144438 0.173252
vt 0.070570 0.066890
vt 0.139946 0.132565
s 0
usemtl Material.001
f 15/19/1 17/21/1 4/5/1 2/2/1
f 21/25/2 23/27/2 18/22/2 14/18/2
f 22/26/3 10/13/3 5/6/3 16/20/3
f 3/3/4 6/7/4 12/15/4 8/10/4
f 9/12/5 11/14/5 24/28/5 20/24/5
f 1/1/6 29/33/6 2/2/6 3/4/6
f 4/5/7 27/31/7 5/6/7 6/8/7
f 7/9/8 8/11/8 9/12/8 31/35/8
f 10/13/9 25/29/9 11/14/9 12/16/9
f 13/17/10 14/18/10 15/19/10 30/34/10
f 16/20/11 28/32/11 17/21/11 18/22/11
f 19/23/12 32/36/12 20/24/12 21/25/12
f 22/26/13 23/27/13 24/28/13 26/30/13
f 7/9/14 1/1/14 3/4/14 8/11/14
f 2/2/15 4/5/15 6/8/15 3/4/15
f 5/6/16 10/13/16 12/16/16 6/8/16
f 11/14/17 9/12/17 8/11/17 12/16/17
f 32/36/18 31/35/18 9/12/18 20/24/18
f 25/29/19 26/30/19 24/28/19 11/14/19
f 23/27/20 21/25/20 20/24/20 24/28/20
f 13/17/21 19/23/21 21/25/21 14/18/21
f 22/26/22 16/20/22 18/22/22 23/27/22
f 17/21/23 15/19/23 14/18/23 18/22/23
f 29/33/24 30/34/24 15/19/24 2/2/24
f 28/32/25 27/31/25 4/5/25 17/21/25
f 7/9/26 19/23/26 13/17/26 1/1/26
f 10/13/27 22/26/27 26/30/27 25/29/27
f 16/20/28 5/6/28 27/31/28 28/32/28
f 1/1/29 13/17/29 30/34/29 29/33/29
f 19/23/30 7/9/30 31/35/30 32/36/30
